<mxfile host="app.diagrams.net" modified="2023-10-12T02:23:25.532Z" agent="Mozilla/5.0 (Windows NT 10.0; Win64; x64) AppleWebKit/537.36 (KHTML, like Gecko) Chrome/117.0.0.0 Safari/537.36 Edg/117.0.2045.60" etag="q3JVws_9prU8JkC42wbz" version="22.0.4" type="github">
  <diagram name="第 1 页" id="Cf7tm69LlF6xcBjuBH4J">
    <mxGraphModel dx="878" dy="509" grid="1" gridSize="10" guides="1" tooltips="1" connect="1" arrows="1" fold="1" page="1" pageScale="1" pageWidth="827" pageHeight="1169" math="0" shadow="0">
      <root>
        <mxCell id="0" />
        <mxCell id="1" parent="0" />
        <mxCell id="yTrIBxQPXIYnZq7uZn1L-1" value="Player" style="rounded=0;whiteSpace=wrap;html=1;" vertex="1" parent="1">
          <mxGeometry x="90" y="250" width="120" height="60" as="geometry" />
        </mxCell>
        <mxCell id="yTrIBxQPXIYnZq7uZn1L-2" value="UNO Game" style="rounded=0;whiteSpace=wrap;html=1;" vertex="1" parent="1">
          <mxGeometry x="290" y="150" width="120" height="60" as="geometry" />
        </mxCell>
        <mxCell id="yTrIBxQPXIYnZq7uZn1L-3" value="Cards" style="rounded=0;whiteSpace=wrap;html=1;" vertex="1" parent="1">
          <mxGeometry x="510" y="250" width="120" height="60" as="geometry" />
        </mxCell>
        <mxCell id="yTrIBxQPXIYnZq7uZn1L-4" value="Skip" style="rounded=0;whiteSpace=wrap;html=1;" vertex="1" parent="1">
          <mxGeometry x="330" y="390" width="120" height="60" as="geometry" />
        </mxCell>
        <mxCell id="yTrIBxQPXIYnZq7uZn1L-5" value="Wild" style="rounded=0;whiteSpace=wrap;html=1;" vertex="1" parent="1">
          <mxGeometry x="510" y="390" width="120" height="60" as="geometry" />
        </mxCell>
        <mxCell id="yTrIBxQPXIYnZq7uZn1L-6" value="Reverse" style="rounded=0;whiteSpace=wrap;html=1;" vertex="1" parent="1">
          <mxGeometry x="670" y="390" width="120" height="60" as="geometry" />
        </mxCell>
        <mxCell id="yTrIBxQPXIYnZq7uZn1L-7" value="+2" style="rounded=0;whiteSpace=wrap;html=1;" vertex="1" parent="1">
          <mxGeometry x="230" y="540" width="120" height="60" as="geometry" />
        </mxCell>
        <mxCell id="yTrIBxQPXIYnZq7uZn1L-8" value="+4" style="rounded=0;whiteSpace=wrap;html=1;" vertex="1" parent="1">
          <mxGeometry x="450" y="540" width="120" height="60" as="geometry" />
        </mxCell>
        <mxCell id="yTrIBxQPXIYnZq7uZn1L-9" value="" style="endArrow=none;html=1;rounded=0;exitX=0.5;exitY=0;exitDx=0;exitDy=0;entryX=0;entryY=0.5;entryDx=0;entryDy=0;" edge="1" parent="1" source="yTrIBxQPXIYnZq7uZn1L-1" target="yTrIBxQPXIYnZq7uZn1L-2">
          <mxGeometry width="50" height="50" relative="1" as="geometry">
            <mxPoint x="440" y="410" as="sourcePoint" />
            <mxPoint x="490" y="360" as="targetPoint" />
            <Array as="points">
              <mxPoint x="150" y="180" />
            </Array>
          </mxGeometry>
        </mxCell>
        <mxCell id="yTrIBxQPXIYnZq7uZn1L-10" value="Players" style="edgeLabel;html=1;align=center;verticalAlign=middle;resizable=0;points=[];" vertex="1" connectable="0" parent="yTrIBxQPXIYnZq7uZn1L-9">
          <mxGeometry x="0.1246" y="4" relative="1" as="geometry">
            <mxPoint as="offset" />
          </mxGeometry>
        </mxCell>
        <mxCell id="yTrIBxQPXIYnZq7uZn1L-11" value="" style="endArrow=none;html=1;rounded=0;entryX=1;entryY=0.5;entryDx=0;entryDy=0;exitX=0.5;exitY=0;exitDx=0;exitDy=0;" edge="1" parent="1" source="yTrIBxQPXIYnZq7uZn1L-3" target="yTrIBxQPXIYnZq7uZn1L-2">
          <mxGeometry width="50" height="50" relative="1" as="geometry">
            <mxPoint x="440" y="410" as="sourcePoint" />
            <mxPoint x="490" y="360" as="targetPoint" />
            <Array as="points">
              <mxPoint x="570" y="180" />
            </Array>
          </mxGeometry>
        </mxCell>
        <mxCell id="yTrIBxQPXIYnZq7uZn1L-12" value="HasCards" style="edgeLabel;html=1;align=center;verticalAlign=middle;resizable=0;points=[];" vertex="1" connectable="0" parent="yTrIBxQPXIYnZq7uZn1L-11">
          <mxGeometry x="0.1523" y="2" relative="1" as="geometry">
            <mxPoint as="offset" />
          </mxGeometry>
        </mxCell>
        <mxCell id="yTrIBxQPXIYnZq7uZn1L-13" value="" style="endArrow=none;html=1;rounded=0;entryX=0;entryY=0.5;entryDx=0;entryDy=0;exitX=1;exitY=0.5;exitDx=0;exitDy=0;" edge="1" parent="1" source="yTrIBxQPXIYnZq7uZn1L-1" target="yTrIBxQPXIYnZq7uZn1L-3">
          <mxGeometry width="50" height="50" relative="1" as="geometry">
            <mxPoint x="200" y="330" as="sourcePoint" />
            <mxPoint x="250" y="280" as="targetPoint" />
          </mxGeometry>
        </mxCell>
        <mxCell id="yTrIBxQPXIYnZq7uZn1L-15" value="OwnCards" style="edgeLabel;html=1;align=center;verticalAlign=middle;resizable=0;points=[];" vertex="1" connectable="0" parent="yTrIBxQPXIYnZq7uZn1L-13">
          <mxGeometry x="0.0656" relative="1" as="geometry">
            <mxPoint as="offset" />
          </mxGeometry>
        </mxCell>
        <mxCell id="yTrIBxQPXIYnZq7uZn1L-17" value="" style="triangle;whiteSpace=wrap;html=1;rotation=-90;" vertex="1" parent="1">
          <mxGeometry x="560" y="300" width="20" height="40" as="geometry" />
        </mxCell>
        <mxCell id="yTrIBxQPXIYnZq7uZn1L-18" value="" style="endArrow=none;html=1;rounded=0;exitX=0.5;exitY=0;exitDx=0;exitDy=0;entryX=0.5;entryY=0;entryDx=0;entryDy=0;" edge="1" parent="1" source="yTrIBxQPXIYnZq7uZn1L-4" target="yTrIBxQPXIYnZq7uZn1L-6">
          <mxGeometry width="50" height="50" relative="1" as="geometry">
            <mxPoint x="460" y="410" as="sourcePoint" />
            <mxPoint x="510" y="360" as="targetPoint" />
            <Array as="points">
              <mxPoint x="390" y="350" />
              <mxPoint x="730" y="350" />
            </Array>
          </mxGeometry>
        </mxCell>
        <mxCell id="yTrIBxQPXIYnZq7uZn1L-19" value="" style="endArrow=none;html=1;rounded=0;entryX=0;entryY=0.5;entryDx=0;entryDy=0;exitX=0.5;exitY=0;exitDx=0;exitDy=0;" edge="1" parent="1" source="yTrIBxQPXIYnZq7uZn1L-5" target="yTrIBxQPXIYnZq7uZn1L-17">
          <mxGeometry width="50" height="50" relative="1" as="geometry">
            <mxPoint x="440" y="410" as="sourcePoint" />
            <mxPoint x="490" y="360" as="targetPoint" />
          </mxGeometry>
        </mxCell>
        <mxCell id="yTrIBxQPXIYnZq7uZn1L-20" value="" style="triangle;whiteSpace=wrap;html=1;rotation=-90;" vertex="1" parent="1">
          <mxGeometry x="560" y="440" width="20" height="40" as="geometry" />
        </mxCell>
        <mxCell id="yTrIBxQPXIYnZq7uZn1L-21" value="" style="triangle;whiteSpace=wrap;html=1;rotation=-90;" vertex="1" parent="1">
          <mxGeometry x="380" y="440" width="20" height="40" as="geometry" />
        </mxCell>
        <mxCell id="yTrIBxQPXIYnZq7uZn1L-25" value="" style="endArrow=none;html=1;rounded=0;entryX=0;entryY=0.5;entryDx=0;entryDy=0;exitX=0.5;exitY=0;exitDx=0;exitDy=0;" edge="1" parent="1" source="yTrIBxQPXIYnZq7uZn1L-8" target="yTrIBxQPXIYnZq7uZn1L-20">
          <mxGeometry width="50" height="50" relative="1" as="geometry">
            <mxPoint x="440" y="410" as="sourcePoint" />
            <mxPoint x="490" y="360" as="targetPoint" />
            <Array as="points">
              <mxPoint x="510" y="500" />
              <mxPoint x="570" y="500" />
            </Array>
          </mxGeometry>
        </mxCell>
        <mxCell id="yTrIBxQPXIYnZq7uZn1L-26" value="" style="endArrow=none;html=1;rounded=0;exitX=0.5;exitY=0;exitDx=0;exitDy=0;entryX=0;entryY=0.5;entryDx=0;entryDy=0;" edge="1" parent="1" source="yTrIBxQPXIYnZq7uZn1L-7" target="yTrIBxQPXIYnZq7uZn1L-8">
          <mxGeometry width="50" height="50" relative="1" as="geometry">
            <mxPoint x="440" y="410" as="sourcePoint" />
            <mxPoint x="490" y="360" as="targetPoint" />
            <Array as="points">
              <mxPoint x="290" y="500" />
              <mxPoint x="420" y="500" />
              <mxPoint x="420" y="570" />
            </Array>
          </mxGeometry>
        </mxCell>
        <mxCell id="yTrIBxQPXIYnZq7uZn1L-27" value="" style="endArrow=none;html=1;rounded=0;entryX=0;entryY=0.5;entryDx=0;entryDy=0;" edge="1" parent="1" target="yTrIBxQPXIYnZq7uZn1L-21">
          <mxGeometry width="50" height="50" relative="1" as="geometry">
            <mxPoint x="390" y="500" as="sourcePoint" />
            <mxPoint x="460" y="480" as="targetPoint" />
            <Array as="points" />
          </mxGeometry>
        </mxCell>
        <mxCell id="yTrIBxQPXIYnZq7uZn1L-31" value="*" style="text;html=1;strokeColor=none;fillColor=none;align=center;verticalAlign=middle;whiteSpace=wrap;rounded=0;" vertex="1" parent="1">
          <mxGeometry x="570" y="220" width="60" height="30" as="geometry" />
        </mxCell>
        <mxCell id="yTrIBxQPXIYnZq7uZn1L-32" value="*" style="text;html=1;strokeColor=none;fillColor=none;align=center;verticalAlign=middle;whiteSpace=wrap;rounded=0;" vertex="1" parent="1">
          <mxGeometry x="450" y="250" width="60" height="30" as="geometry" />
        </mxCell>
        <mxCell id="yTrIBxQPXIYnZq7uZn1L-33" value="disjoint" style="text;html=1;strokeColor=none;fillColor=none;align=center;verticalAlign=middle;whiteSpace=wrap;rounded=0;" vertex="1" parent="1">
          <mxGeometry x="290" y="470" width="60" height="30" as="geometry" />
        </mxCell>
        <mxCell id="yTrIBxQPXIYnZq7uZn1L-34" value="1" style="text;html=1;strokeColor=none;fillColor=none;align=center;verticalAlign=middle;whiteSpace=wrap;rounded=0;" vertex="1" parent="1">
          <mxGeometry x="410" y="150" width="60" height="30" as="geometry" />
        </mxCell>
        <mxCell id="yTrIBxQPXIYnZq7uZn1L-35" value="1" style="text;html=1;strokeColor=none;fillColor=none;align=center;verticalAlign=middle;whiteSpace=wrap;rounded=0;" vertex="1" parent="1">
          <mxGeometry x="230" y="150" width="60" height="30" as="geometry" />
        </mxCell>
        <mxCell id="yTrIBxQPXIYnZq7uZn1L-36" value="1" style="text;html=1;strokeColor=none;fillColor=none;align=center;verticalAlign=middle;whiteSpace=wrap;rounded=0;" vertex="1" parent="1">
          <mxGeometry x="210" y="250" width="60" height="30" as="geometry" />
        </mxCell>
        <mxCell id="yTrIBxQPXIYnZq7uZn1L-37" value="2...4" style="text;html=1;strokeColor=none;fillColor=none;align=center;verticalAlign=middle;whiteSpace=wrap;rounded=0;" vertex="1" parent="1">
          <mxGeometry x="90" y="220" width="60" height="30" as="geometry" />
        </mxCell>
      </root>
    </mxGraphModel>
  </diagram>
</mxfile>
